<?xml version="1.0" encoding="utf-8"?>
<!-- Generator: Adobe Illustrator 21.0.0, SVG Export Plug-In . SVG Version: 6.00 Build 0)  -->
<svg version="1.1" id="Слой_1" xmlns="http://www.w3.org/2000/svg" xmlns:xlink="http://www.w3.org/1999/xlink" x="0px" y="0px"
	 viewBox="0 0 23 20" style="enable-background:new 0 0 23 20;" xml:space="preserve">
<style type="text/css">
	.st0{fill:#F51264;}
</style>
<path class="st0" d="M21.2,2c-1.2-1.3-2.8-2-4.6-2C15.2,0,14,0.4,13,1.2c-0.5,0.4-1,0.9-1.5,1.5c-0.4-0.6-0.9-1.1-1.5-1.5
	C9,0.4,7.8,0,6.4,0C4.6,0,3,0.7,1.8,2C0.6,3.2,0,4.9,0,6.8c0,1.9,0.7,3.6,2.3,5.5c1.4,1.6,3.4,3.3,5.7,5.2l0,0
	c0.8,0.7,1.7,1.4,2.6,2.2c0.2,0.2,0.6,0.3,0.9,0.3c0.3,0,0.6-0.1,0.9-0.3c0.9-0.8,1.8-1.5,2.6-2.2c2.3-1.9,4.3-3.6,5.7-5.2
	c1.6-1.8,2.3-3.6,2.3-5.5C23,4.9,22.4,3.2,21.2,2z"/>
</svg>
