<?xml version="1.0" ?><svg enable-background="new 0 0 512 512" id="Layer_1" version="1.1" viewBox="0 0 512 512" xml:space="preserve" xmlns="http://www.w3.org/2000/svg" xmlns:xlink="http://www.w3.org/1999/xlink"><g><g><linearGradient gradientUnits="userSpaceOnUse" id="SVGID_1_" x1="0.0000038" x2="512" y1="256" y2="256"><stop offset="0" style="stop-color:#A364AB"/><stop offset="1" style="stop-color:#8C3D96"/></linearGradient><circle cx="256" cy="256" fill="url(#SVGID_1_)" r="256"/><linearGradient gradientUnits="userSpaceOnUse" id="SVGID_2_" x1="42.6666679" x2="469.3333435" y1="256.0010681" y2="256.0010681"><stop offset="0" style="stop-color:#8C3D96"/><stop offset="1" style="stop-color:#A364AB"/></linearGradient><path d="M256,469.3344116c-117.6314697,0-213.3333282-95.7024231-213.3333282-213.3333435    c0-117.6314697,95.7018585-213.3333435,213.3333282-213.3333435c117.6357422,0,213.3333435,95.7018661,213.3333435,213.3333435    C469.3333435,373.6319885,373.6357422,469.3344116,256,469.3344116z" fill="url(#SVGID_2_)"/></g><path d="M262.0799866,175.0559998L232.4640045,144H144v240h240V175.0559998H262.0799866z M307.305603,283.7514648   l-38.5056152-41.5338593v102.3770599h-9.5999756V242.2176056l-38.5029449,41.5338593l-7.0405273-6.5253296L264,222.9216003   l50.3466797,54.3045349L307.305603,283.7514648z" opacity="0.3"/><path d="M254.0800018,167.0559998L224.4640045,136H136v240h240V167.0559998H254.0800018z M299.305603,275.7514648   l-38.5056152-41.5338593v102.3770599h-9.5999908V234.2176056l-38.5029297,41.5338593l-7.0405273-6.5253296L256,214.9216003   l50.3466797,54.3045349L299.305603,275.7514648z" fill="#FFFFFF"/></g></svg>